<svg version="1.1" xmlns="http://www.w3.org/2000/svg" xmlns:xlink="http://www.w3.org/1999/xlink" width="95.30241" height="95.26498" viewBox="0,0,95.30241,95.26498"><g transform="translate(-192.34879,-132.36751)"><g data-paper-data="{&quot;isPaintingLayer&quot;:true}" fill-rule="nonzero" stroke="#ffffff" stroke-linejoin="miter" stroke-miterlimit="10" stroke-dasharray="" stroke-dashoffset="0" style="mix-blend-mode: normal"><path d="" fill="none" stroke-width="3" stroke-linecap="butt"/><g fill="none" stroke-width="7.5" stroke-linecap="round"><path d="M212.26388,176.05293c4.34447,-26.58076 28.91292,-42.9285 47.46494,-39.47781"/><path d="M259.81366,136.47149c18.55202,3.45068 31.12499,26.70673 19.76288,51.98221"/><path d="M279.22663,189.13427c-10.42729,24.3994 -34.31516,43.08001 -49.95421,30.94504"/></g><g fill="#ffffff"><g stroke-width="7.5" stroke-linecap="round"><path d="M196.25936,175.5959l16.59415,15.55782"/><path d="M228.68879,165.32428l-15.83528,25.82944"/></g><path d="M196.09879,175.61705l32.24292,-10.06608" stroke-width="7.5" stroke-linecap="round"/><path d="M202.05727,186.30728l-2.05567,-13.08465l22.37914,-5.40805l0.09259,13.55904c0,0 -6.59219,3.3777 -9.99223,4.19933c-3.40531,0.82291 -10.42383,0.73432 -10.42383,0.73432z" stroke-width="0.5" stroke-linecap="butt"/></g></g></g></svg>